<svg xmlns="http://www.w3.org/2000/svg" width="40" height="40" fill="none"><path fill="currentColor" fill-rule="evenodd" d="M20 0C8.954 0 0 8.954 0 20s8.954 20 20 20 20-8.954 20-20S31.046 0 20 0m1.628 26.314c-.197.207-.582.25-.582.25H19.77s-2.812.165-5.29-2.366c-2.703-2.763-5.09-8.243-5.09-8.243s-.137-.36.012-.533c.168-.196.626-.208.626-.208l3.048-.02s.287.047.492.195c.17.123.266.352.266.352s.492 1.222 1.144 2.329c1.274 2.16 1.867 2.632 2.299 2.4.63-.337.441-3.053.441-3.053s.012-.985-.317-1.425c-.255-.34-.735-.439-.947-.467-.172-.022.11-.413.475-.588.55-.264 1.517-.28 2.662-.268.892.01 1.149.064 1.497.147.81.191.784.805.73 2.13-.017.397-.036.857-.036 1.388q0 .181-.007.377c-.019.68-.04 1.457.415 1.746.234.148.805.021 2.233-2.359.677-1.128 1.184-2.455 1.184-2.455s.112-.236.284-.338c.177-.103.414-.072.414-.072l3.208-.019s.964-.114 1.12.314c.163.448-.36 1.495-1.671 3.21-1.243 1.626-1.848 2.225-1.793 2.755.04.387.434.737 1.189 1.424 1.575 1.436 1.997 2.191 2.099 2.373l.019.033c.706 1.15-.784 1.24-.784 1.24l-2.85.04s-.61.118-1.416-.425c-.422-.284-.834-.748-1.227-1.19-.6-.675-1.154-1.298-1.627-1.151-.794.248-.77 1.927-.77 1.927s.006.359-.174.55" clip-rule="evenodd"></path></svg>