<svg xmlns="http://www.w3.org/2000/svg" width="40" height="40" fill="none"><path fill="currentColor" fill-rule="evenodd" d="M20 0C8.954 0 0 8.954 0 20s8.954 20 20 20 20-8.954 20-20S31.046 0 20 0m8.334 13.125c.918.251 1.64.993 1.886 1.936.446 1.708.446 5.272.446 5.272s0 3.564-.446 5.273a2.71 2.71 0 0 1-1.886 1.936C26.671 28 19.999 28 19.999 28s-6.67 0-8.334-.458a2.71 2.71 0 0 1-1.887-1.936c-.445-1.709-.445-5.273-.445-5.273s0-3.564.445-5.272a2.71 2.71 0 0 1 1.887-1.937c1.663-.457 8.334-.457 8.334-.457s6.672 0 8.335.457" clip-rule="evenodd"></path><path fill="currentColor" d="M18 24v-6.666l5.333 3.333z"></path></svg>